<svg width="84" height="79" viewBox="0 0 84 79" fill="none" xmlns="http://www.w3.org/2000/svg">
<circle cx="49" cy="3" r="2.35" stroke="#777777" stroke-width="0.7"/>
<circle cx="18" cy="15" r="2.35" stroke="#777777" stroke-width="0.7"/>
<circle cx="66" cy="31" r="2.35" stroke="#777777" stroke-width="0.7"/>
<circle cx="81" cy="9" r="2.35" stroke="#777777" stroke-width="0.7"/>
<circle cx="57" cy="63" r="2.35" stroke="#777777" stroke-width="0.7"/>
<circle cx="26" cy="76" r="2.35" stroke="#777777" stroke-width="0.7"/>
<circle cx="3" cy="52" r="2.35" stroke="#777777" stroke-width="0.7"/>
<circle cx="34" cy="39" r="2.35" stroke="#777777" stroke-width="0.7"/>
<path d="M51.598 6.5L63.2203 26.6305M63.2203 26.6305L64.3347 22.5606M63.2203 26.6305L59.1385 25.5606" stroke="#777777" stroke-width="0.7"/>
<path d="M22.0911 13.3414L43.9818 4.79462M43.9818 4.79462L40.0961 3.09114M43.9818 4.79462L42.2783 8.68026" stroke="#777777" stroke-width="0.7"/>
<path d="M64.5822 35.2235L58.5 57.9228M58.5 57.9228L62.1742 55.8015M58.5 57.9228L56.3786 54.2486" stroke="#777777" stroke-width="0.7"/>
<path d="M52.8331 64.7663L31.1594 73.8493M31.1594 73.8493L35.0858 75.4567M31.1594 73.8493L32.7668 69.923" stroke="#777777" stroke-width="0.7"/>
<path d="M27 71.5L32.8779 44.1627M32.8779 44.1627L29.3137 46.464M32.8779 44.1627L35.1793 47.7269" stroke="#777777" stroke-width="0.7"/>
<path d="M4.4999 48.0003L16.0223 19.3073M16.0223 19.3073L12.1283 20.9916M16.0223 19.3073L17.7066 23.2012" stroke="#777777" stroke-width="0.7"/>
<path d="M53.7383 59.7381L37.1213 43.121M37.1213 43.121L37.1213 47.3637M37.1213 43.121L41.3639 43.121" stroke="#777777" stroke-width="0.7"/>
<path d="M22.7383 72.7381L6.12125 56.121M6.12125 56.121L6.12125 60.3637M6.12125 56.121L10.3639 56.121" stroke="#777777" stroke-width="0.7"/>
<path d="M38.5 37.5L60.4757 31.8977M60.4757 31.8977L56.8014 29.7764M60.4757 31.8977L58.3544 35.572" stroke="#777777" stroke-width="0.7"/>
<path d="M53.5557 3.68415L75.857 7.80328M75.857 7.80328L73.4094 4.33786M75.857 7.80328L72.3916 10.2509" stroke="#777777" stroke-width="0.7"/>
<path d="M78.4996 12.5006L68.8455 26.6722M68.8455 26.6722L73.0168 25.8972M68.8455 26.6722L68.0705 22.501" stroke="#777777" stroke-width="0.7"/>
<path d="M31.4997 35.4996L20.6351 19.1128M20.6351 19.1128L19.9547 23.3006M20.6351 19.1128L24.8228 19.7932" stroke="#777777" stroke-width="0.7"/>
</svg>
