<svg width="14" height="14" viewBox="0 0 14 14" fill="none" xmlns="http://www.w3.org/2000/svg">
<path d="M7.00009 8.48633V12.3633M7.00009 12.3633H3.12317M7.00009 12.3633H10.877" stroke="#777777" stroke-width="1.4"/>
<path d="M3.60767 1.70117H10.3923V5.09348C10.3923 6.967 8.87349 8.48579 6.99997 8.48579V8.48579C5.12645 8.48579 3.60767 6.967 3.60767 5.09348V1.70117Z" stroke="#777777" stroke-width="1.4"/>
<path d="M0.703119 2.77169C0.774622 3.91814 2.04767 5.57957 3.60764 5.57957V2.67188H0.799951C0.744723 2.67188 0.699681 2.71656 0.703119 2.77169Z" stroke="#777777" stroke-width="1.4"/>
<path d="M13.2968 2.77169C13.2253 3.91814 11.9522 5.57957 10.3922 5.57957V2.67188H13.1999C13.2552 2.67188 13.3002 2.71656 13.2968 2.77169Z" stroke="#777777" stroke-width="1.4"/>
</svg>
