<svg width="89" height="79" viewBox="0 0 89 79" fill="none" xmlns="http://www.w3.org/2000/svg">
<path d="M20.9717 24.4901C-4.41536 -1.40604 29.6266 -2.67642 46.3589 5.38641C61.0792 12.4797 92.3671 25.9206 72.9 38.0751C53 50.5 109.827 58.877 44.6281 72.8864C-20.5707 86.8958 5.39344 49.1128 16.933 48.6883C28.4726 48.2638 46.3589 50.3863 20.9717 24.4901Z" stroke="#333333" stroke-width="0.7"/>
<path d="M34.0001 44.3418L53.8274 10L68.342 64.1691L34.0001 44.3418Z" stroke="#333333" stroke-width="0.7" stroke-dasharray="2.8 2.8"/>
<path d="M3.54932 62.5493L17.0986 49L17.0986 76.0986L3.54932 62.5493Z" stroke="#333333" stroke-width="0.7" stroke-dasharray="2.8 2.8"/>
<circle cx="53.5" cy="8.5" r="1.85" fill="#EEEEEE" stroke="#333333" stroke-width="0.7"/>
<circle cx="33.5" cy="44.5" r="1.85" fill="#EEEEEE" stroke="#333333" stroke-width="0.7"/>
<circle cx="17.5" cy="48.5" r="1.85" fill="#EEEEEE" stroke="#333333" stroke-width="0.7"/>
<circle cx="17.5" cy="76.5" r="1.85" fill="#EEEEEE" stroke="#333333" stroke-width="0.7"/>
<circle cx="2.5" cy="62.5" r="1.85" fill="#EEEEEE" stroke="#333333" stroke-width="0.7"/>
<circle cx="69.5" cy="65.5" r="1.85" fill="#EEEEEE" stroke="#333333" stroke-width="0.7"/>
</svg>
