<svg width="102" height="99" viewBox="0 0 102 99" fill="none" xmlns="http://www.w3.org/2000/svg">
<circle cx="48" cy="38" r="2.35" stroke="#333333" stroke-width="0.7"/>
<circle cx="34" cy="48" r="2.35" stroke="#333333" stroke-width="0.7"/>
<circle cx="48.5" cy="38.5" r="27.85" stroke="#333333" stroke-width="0.7" stroke-dasharray="2.8 2.8"/>
<circle cx="36" cy="30" r="2.35" stroke="#333333" stroke-width="0.7"/>
<circle cx="90" cy="50" r="2.35" stroke="#333333" stroke-width="0.7"/>
<circle cx="53" cy="87" r="2.35" stroke="#333333" stroke-width="0.7"/>
<circle cx="93" cy="81" r="2.35" stroke="#333333" stroke-width="0.7"/>
<circle cx="78" cy="9" r="2.35" stroke="#333333" stroke-width="0.7"/>
<circle cx="3" cy="54" r="2.35" stroke="#333333" stroke-width="0.7"/>
<path d="M49.5 36.5L76.5 10.5" stroke="#333333" stroke-width="0.7"/>
<path d="M50.5 39L88.0001 48.9985" stroke="#333333" stroke-width="0.7"/>
<path d="M48.0001 40.4986L53.0001 84.5004" stroke="#333333" stroke-width="0.7"/>
<path d="M35.0002 49.9995L51.8432 84.6668" stroke="#333333" stroke-width="0.7"/>
<path d="M5.50017 53.5003L31.5001 48.0011" stroke="#333333" stroke-width="0.7"/>
<path d="M5 52.5L34 31" stroke="#333333" stroke-width="0.7"/>
<path d="M5.00011 55.0007L51 86" stroke="#333333" stroke-width="0.7"/>
<path d="M36 46.5004L46 39.5" stroke="#333333" stroke-width="0.7"/>
<path d="M37.9964 28.9993L75.5 9.5" stroke="#333333" stroke-width="0.7"/>
<path d="M38 31.0001L46 36.5" stroke="#333333" stroke-width="0.7"/>
<path d="M35.5003 32.5016L34.5 45.5" stroke="#333333" stroke-width="0.7"/>
<path d="M88.5 51.5L54 85.0012" stroke="#333333" stroke-width="0.7"/>
<path d="M90.5 81.5L55.5013 86.5048" stroke="#333333" stroke-width="0.7"/>
<path d="M90 52.5L92.5 78.5" stroke="#333333" stroke-width="0.7"/>
<path d="M79.0001 11L89 48" stroke="#333333" stroke-width="0.7"/>
<circle cx="36" cy="30" r="1" fill="#333333" stroke="#333333" stroke-width="0.5"/>
<circle cx="48" cy="38" r="1" fill="#333333" stroke="#333333" stroke-width="0.5"/>
<circle cx="34" cy="48" r="1" fill="#333333" stroke="#333333" stroke-width="0.5"/>
</svg>
