<svg width="189" height="187" viewBox="0 0 189 187" fill="none" xmlns="http://www.w3.org/2000/svg">
<path d="M87.9496 4.43847C90.9808 -0.391907 98.0192 -0.391912 101.05 4.43847L111.163 20.5533C113.241 23.8646 117.463 25.1044 121.002 23.4422L138.221 15.3528C143.383 12.928 149.304 16.7332 149.242 22.4356L149.037 41.4595C148.995 45.3686 151.877 48.6943 155.752 49.2089L174.611 51.7132C180.264 52.4639 183.188 58.8663 180.054 63.6301L169.596 79.5231C167.447 82.7889 168.073 87.1447 171.055 89.6727L185.567 101.976C189.917 105.663 188.915 112.63 183.702 114.943L166.312 122.659C162.739 124.245 160.911 128.248 162.053 131.987L167.609 150.182C169.275 155.636 164.666 160.955 159.03 160.083L140.229 157.173C136.366 156.575 132.664 158.954 131.603 162.716L126.44 181.027C124.893 186.516 118.139 188.499 113.87 184.718L99.627 172.105C96.7003 169.514 92.2997 169.514 89.373 172.105L75.1301 184.718C70.8608 188.499 64.1075 186.516 62.5599 181.027L57.3972 162.716C56.3363 158.954 52.6342 156.575 48.771 157.173L29.9699 160.083C24.3343 160.955 19.7251 155.636 21.3907 150.182L26.9472 131.987C28.089 128.248 26.2609 124.245 22.6875 122.659L5.29756 114.943C0.0849695 112.63 -0.916707 105.663 3.43312 101.976L17.9448 89.6727C20.9267 87.1447 21.553 82.7889 19.4041 79.5231L8.94638 63.6301C5.81172 58.8663 8.73559 52.4639 14.3887 51.7132L33.2481 49.2089C37.1234 48.6943 40.0052 45.3686 39.963 41.4595L39.7579 22.4356C39.6964 16.7332 45.6175 12.928 50.779 15.3527L67.9985 23.4422C71.5368 25.1044 75.7592 23.8646 77.8371 20.5533L87.9496 4.43847Z" fill="#333333"/>
</svg>
